<?xml version="1.0" standalone="no"?>
<!DOCTYPE svg PUBLIC "-//W3C//DTD SVG 20010904//EN"
 "http://www.w3.org/TR/2001/REC-SVG-20010904/DTD/svg10.dtd">
<svg version="1.0" xmlns="http://www.w3.org/2000/svg"
 width="1830.000000pt" height="1830.000000pt" viewBox="0 0 1830.000000 1830.000000"
 preserveAspectRatio="xMidYMid meet">

<g transform="translate(0.000000,1830.000000) scale(0.100000,-0.100000)"
fill="#000000" stroke="none">
<path d="M8730 18289 c-1824 -82 -3595 -717 -5050 -1810 -379 -285 -657 -525
-990 -859 -594 -594 -1078 -1226 -1491 -1948 -116 -202 -344 -659 -438 -875
-427 -986 -672 -2016 -741 -3117 -15 -227 -15 -814 -1 -1050 66 -1078 301
-2087 716 -3065 103 -244 339 -718 473 -951 536 -930 1199 -1729 2013 -2426
1403 -1200 3160 -1952 4999 -2137 335 -34 553 -45 930 -45 376 0 592 11 930
45 2458 248 4702 1479 6249 3428 1071 1349 1744 3001 1920 4711 39 371 46 520
46 960 0 440 -7 588 -46 960 -167 1627 -786 3207 -1768 4514 -526 700 -1150
1326 -1840 1844 -1699 1276 -3781 1917 -5911 1821z m150 -2559 c284 -20 527
-58 725 -116 375 -109 450 -139 726 -284 183 -96 354 -205 454 -290 33 -27 98
-79 145 -114 99 -75 344 -322 444 -448 108 -136 186 -248 186 -269 0 -10 8
-24 18 -31 28 -21 145 -208 211 -337 167 -328 285 -720 335 -1116 23 -186 28
-275 30 -630 2 -358 10 -424 63 -550 58 -138 183 -289 307 -371 59 -39 60 -39
155 -39 83 0 104 4 161 28 36 16 84 33 108 38 66 13 225 82 315 136 142 85
286 246 348 390 11 26 30 82 42 123 21 74 22 93 27 1105 5 960 7 1034 24 1085
79 240 232 332 530 317 135 -7 217 -32 290 -91 57 -47 109 -126 131 -200 34
-115 36 -196 33 -1791 -3 -1453 -5 -1585 -21 -1643 -24 -89 -62 -158 -116
-212 -106 -106 -238 -139 -424 -105 -98 17 -151 43 -211 102 -89 90 -135 221
-137 393 -2 168 1 167 -101 56 -153 -165 -317 -291 -496 -381 -111 -55 -319
-126 -457 -155 -127 -27 -366 -37 -490 -21 -179 23 -418 102 -568 186 -67 38
-156 123 -203 192 -21 32 -62 88 -91 124 -65 81 -102 156 -142 284 -87 284
-94 355 -96 930 -2 499 -4 538 -46 774 -41 229 -191 599 -324 797 -78 116
-184 254 -274 358 -75 86 -326 299 -433 366 -164 103 -434 235 -574 280 -136
43 -305 81 -454 101 -134 19 -494 16 -648 -5 -424 -57 -832 -235 -1177 -513
-104 -84 -299 -278 -350 -348 -16 -22 -38 -50 -49 -61 -75 -78 -111 -134 -189
-289 -132 -265 -250 -580 -773 -2069 -294 -836 -551 -1564 -571 -1616 -142
-376 -368 -652 -620 -760 -267 -113 -627 -132 -880 -46 -175 59 -286 172 -328
331 -26 103 -12 232 36 327 31 61 111 135 182 168 82 39 176 51 380 51 150 -1
174 1 218 20 95 41 145 130 137 246 -5 73 -95 347 -323 983 -126 349 -680
1925 -697 1980 -6 19 -37 103 -69 185 -107 279 -141 416 -141 570 -1 159 45
269 157 375 176 166 490 180 703 30 72 -51 145 -138 175 -211 21 -50 65 -205
262 -924 95 -346 237 -864 315 -1150 79 -286 146 -524 151 -529 17 -20 29 18
205 669 69 253 156 588 194 745 110 446 126 504 201 690 119 296 243 529 395
740 435 605 1015 1034 1711 1266 441 147 831 202 1243 174z m11 -1631 c56 -6
140 -22 188 -36 47 -13 108 -29 135 -34 62 -13 306 -124 408 -186 275 -166
538 -457 678 -749 142 -296 216 -690 180 -961 -61 -454 -227 -808 -515 -1098
-312 -313 -713 -499 -1161 -537 -217 -19 -484 16 -724 94 -120 39 -373 174
-470 251 -51 40 -109 86 -130 102 -58 46 -229 234 -268 295 -19 30 -54 85 -78
121 -83 129 -114 200 -199 454 -13 39 -33 138 -45 220 -29 191 -24 450 10 610
69 323 216 619 428 861 377 430 975 657 1563 593z m707 -4875 c190 -94 190
-344 0 -438 -66 -33 -170 -36 -235 -7 -95 44 -161 152 -151 246 11 94 79 180
166 211 64 23 161 18 220 -12z m4812 -579 l0 -565 295 0 295 0 0 -130 0 -130
-290 0 -290 0 0 -558 c0 -524 1 -564 20 -636 28 -110 74 -190 156 -272 92 -94
135 -109 294 -108 98 0 124 4 175 24 33 14 64 25 68 25 4 0 29 -54 56 -120 57
-141 66 -126 -99 -171 -95 -26 -120 -29 -260 -29 -142 1 -161 3 -228 27 -232
84 -406 281 -488 553 -17 56 -19 139 -21 1358 l-4 1297 161 0 160 0 0 -565z
m-9174 -274 c175 -44 289 -94 434 -189 98 -65 265 -227 333 -323 141 -199 207
-416 207 -676 0 -330 -113 -605 -345 -839 -251 -254 -563 -384 -920 -384 -359
0 -655 118 -908 362 l-87 83 0 -642 0 -643 -160 0 -160 0 0 1119 0 1118 26
103 c52 207 158 423 258 529 85 89 233 197 351 258 138 70 257 107 475 147 14
2 113 3 220 1 155 -2 212 -7 276 -24z m3136 -26 c30 -7 81 -25 112 -39 l57
-25 -82 -123 c-45 -68 -83 -124 -84 -126 -2 -2 -29 1 -61 7 -126 24 -245 -24
-380 -152 -100 -94 -170 -186 -224 -294 -80 -161 -91 -274 -97 -1021 l-5 -602
-162 2 -161 3 -3 670 c-3 737 -4 723 60 905 125 353 329 588 641 735 156 74
269 91 389 60z m3788 5 c122 -14 231 -45 339 -96 226 -106 370 -263 435 -473
64 -205 76 -388 76 -1193 l0 -618 -160 0 -160 0 0 513 c-1 626 -12 992 -34
1102 -22 106 -82 227 -143 288 -84 85 -215 136 -398 157 -257 29 -464 -8 -638
-112 -109 -65 -180 -136 -223 -223 -30 -60 -36 -86 -45 -180 -5 -61 -14 -135
-20 -165 -7 -33 -13 -316 -16 -717 l-5 -663 -164 0 -164 0 -2 578 c-4 714 -2
767 23 922 27 162 60 275 111 380 81 166 322 369 513 429 215 69 466 95 675
71z m-2520 -1215 l0 -1165 -160 0 -160 0 0 1165 0 1165 160 0 160 0 0 -1165z
m5415 -2815 c-9 -14 -482 -327 -640 -422 -1973 -1193 -4164 -1623 -6500 -1277
-1163 172 -2369 551 -3450 1085 -266 131 -675 355 -675 370 0 1 26 -6 58 -17
31 -11 165 -54 297 -95 2185 -685 4407 -935 6560 -738 1169 106 2309 343 3337
693 338 116 792 296 956 381 65 33 65 33 57 20z"/>
<path d="M4703 8095 c-315 -57 -602 -288 -712 -573 -43 -114 -61 -214 -61
-352 0 -136 18 -238 60 -347 191 -493 831 -732 1337 -498 265 122 459 353 535
636 31 116 31 317 -1 434 -94 355 -379 620 -746 696 -106 22 -302 24 -412 4z"/>
</g>
</svg>
