<svg version="1.1" id="Layer_1" xmlns="http://www.w3.org/2000/svg" xmlns:xlink="http://www.w3.org/1999/xlink" x="0px" y="0px"
	 width="100%" viewBox="0 0 591 591" enable-background="new 0 0 591 591" xml:space="preserve">
<path fill="#FFFFFF" opacity="1.000000" stroke="none" 
	d="
M265.000000,592.000000 
	C176.666687,592.000000 88.833366,592.000000 1.000035,592.000000 
	C1.000024,395.000061 1.000024,198.000107 1.000012,1.000115 
	C197.999924,1.000076 394.999847,1.000076 591.999817,1.000038 
	C591.999878,197.999878 591.999878,394.999756 591.999939,591.999817 
	C483.166656,592.000000 374.333344,592.000000 265.000000,592.000000 
M176.929871,374.988312 
	C302.561554,374.988312 428.193237,374.988312 553.834229,374.988312 
	C553.834229,354.922546 553.834229,335.462463 553.976685,315.135773 
	C553.929199,313.089661 553.881775,311.043579 553.988281,308.071686 
	C553.988281,277.472137 553.988281,246.872620 553.988281,216.241699 
	C420.182098,216.241699 286.881927,216.241699 153.581772,216.241699 
	C155.716766,217.074783 157.921417,217.420410 160.055313,218.018448 
	C179.958725,223.596481 193.548004,236.247635 202.096619,254.917908 
	C206.529694,264.599792 207.015244,274.657043 207.154709,284.994049 
	C207.209122,289.026672 208.406677,293.334534 210.220581,296.945923 
	C211.345139,299.184875 214.743820,301.909668 216.884689,301.721344 
	C225.072693,301.001129 235.224716,295.159943 235.040100,284.076782 
	C234.856934,273.081360 234.928574,262.079895 235.028061,251.082321 
	C235.083786,244.922440 238.628876,241.287079 244.474518,241.000305 
	C250.347061,240.712250 254.856262,244.193420 254.917999,250.031952 
	C255.129471,270.026947 255.280853,290.032227 254.804459,310.018097 
	C254.682404,315.138306 253.243683,318.740631 244.615845,318.052368 
	C239.993164,317.683594 237.429581,315.175476 236.991852,309.777802 
	C236.945129,309.201752 236.805130,308.633270 236.624908,307.567596 
	C235.663376,308.216187 235.089279,308.480957 234.673523,308.902069 
	C227.145721,316.526611 218.154221,319.688812 207.492447,318.011993 
	C197.858063,316.496765 191.721985,313.175385 189.161163,302.994812 
	C187.511459,296.436340 186.977417,289.409973 187.136322,282.621246 
	C187.511368,266.598419 181.390839,254.028503 168.843704,244.326477 
	C158.333755,236.199707 145.957672,233.962860 133.668610,236.451141 
	C116.335831,239.960678 104.768654,251.213104 98.985069,268.200104 
	C92.429695,287.453918 86.107758,306.806183 78.839310,325.792114 
	C73.369858,340.078888 69.009300,345.052765 52.438118,343.804504 
	C46.424271,343.351532 42.072258,340.690277 42.932552,332.894073 
	C43.519947,327.570953 45.317928,326.024017 52.488827,326.000122 
	C53.488667,325.996765 54.506744,326.117310 55.485203,325.971405 
	C59.707348,325.341919 61.399422,322.616058 59.988091,318.531921 
	C53.657894,300.213440 47.290741,281.907654 40.876625,263.618439 
	C40.518181,262.596344 39.620064,261.763580 38.292458,259.873779 
	C38.292458,299.075531 38.292458,336.933777 38.292458,374.834259 
	C67.389046,374.834259 96.193275,374.834259 125.923317,374.977264 
	C142.616959,374.929810 159.310608,374.882355 176.929871,374.988312 
M64.958450,271.646149 
	C66.784554,278.479828 68.610664,285.313538 70.620842,292.836060 
	C71.827927,291.507324 72.668472,291.001404 72.845459,290.322449 
	C74.626396,283.490387 76.449921,276.663422 77.973343,269.771332 
	C82.860390,247.662003 94.400818,230.725128 115.498856,221.206360 
	C119.155045,219.556824 123.028671,218.389221 126.801857,216.999008 
	C126.709328,216.773819 126.616791,216.548615 126.524261,216.323425 
	C97.064278,216.323425 67.604286,216.323425 38.073341,216.323425 
	C38.073341,225.928696 38.073341,235.210556 38.073341,244.778137 
	C39.230999,244.228104 40.328152,243.900925 41.196747,243.262695 
	C46.933411,239.047409 56.181175,240.359375 58.818394,249.570724 
	C60.848240,256.660614 62.588348,263.833466 64.958450,271.646149 
z"/>
<path fill="#000000" opacity="1.000000" stroke="none" 
	d="
M553.834229,316.002411 
	C553.834229,335.462463 553.834229,354.922546 553.834229,374.988312 
	C428.193237,374.988312 302.561554,374.988312 176.677124,374.588684 
	C179.149628,373.700073 181.881210,373.243683 184.599136,372.716888 
	C203.609268,369.032349 221.539902,362.372314 238.379807,352.854675 
	C243.680023,349.859070 248.695129,346.359009 253.840729,343.089844 
	C253.645248,342.724884 253.449768,342.359894 253.254288,341.994904 
	C185.898056,369.726837 117.902405,367.999176 49.242203,346.708374 
	C56.898682,351.321045 64.628952,355.492615 72.697067,358.852966 
	C87.131386,364.864716 101.967789,369.672394 117.503868,372.101501 
	C120.081169,372.504456 122.503540,373.898315 124.997513,374.834290 
	C96.193275,374.834259 67.389046,374.834259 38.292458,374.834259 
	C38.292458,336.933777 38.292458,299.075531 38.292458,259.873779 
	C39.620064,261.763580 40.518181,262.596344 40.876625,263.618439 
	C47.290741,281.907654 53.657894,300.213440 59.988091,318.531921 
	C61.399422,322.616058 59.707348,325.341919 55.485203,325.971405 
	C54.506744,326.117310 53.488667,325.996765 52.488827,326.000122 
	C45.317928,326.024017 43.519947,327.570953 42.932552,332.894073 
	C42.072258,340.690277 46.424271,343.351532 52.438118,343.804504 
	C69.009300,345.052765 73.369858,340.078888 78.839310,325.792114 
	C86.107758,306.806183 92.429695,287.453918 98.985069,268.200104 
	C104.768654,251.213104 116.335831,239.960678 133.668610,236.451141 
	C145.957672,233.962860 158.333755,236.199707 168.843704,244.326477 
	C181.390839,254.028503 187.511368,266.598419 187.136322,282.621246 
	C186.977417,289.409973 187.511459,296.436340 189.161163,302.994812 
	C191.721985,313.175385 197.858063,316.496765 207.492447,318.011993 
	C218.154221,319.688812 227.145721,316.526611 234.673523,308.902069 
	C235.089279,308.480957 235.663376,308.216187 236.624908,307.567596 
	C236.805130,308.633270 236.945129,309.201752 236.991852,309.777802 
	C237.429581,315.175476 239.993164,317.683594 244.615845,318.052368 
	C253.243683,318.740631 254.682404,315.138306 254.804459,310.018097 
	C255.280853,290.032227 255.129471,270.026947 254.917999,250.031952 
	C254.856262,244.193420 250.347061,240.712250 244.474518,241.000305 
	C238.628876,241.287079 235.083786,244.922440 235.028061,251.082321 
	C234.928574,262.079895 234.856934,273.081360 235.040100,284.076782 
	C235.224716,295.159943 225.072693,301.001129 216.884689,301.721344 
	C214.743820,301.909668 211.345139,299.184875 210.220581,296.945923 
	C208.406677,293.334534 207.209122,289.026672 207.154709,284.994049 
	C207.015244,274.657043 206.529694,264.599792 202.096619,254.917908 
	C193.548004,236.247635 179.958725,223.596481 160.055313,218.018448 
	C157.921417,217.420410 155.716766,217.074783 153.581772,216.241699 
	C286.881927,216.241699 420.182098,216.241699 553.988281,216.241699 
	C553.988281,246.872620 553.988281,277.472137 553.545044,308.517853 
	C552.411743,307.938538 551.348328,306.994324 551.104126,305.871826 
	C550.461548,302.918488 549.194641,302.602356 546.503113,303.726013 
	C538.829834,306.929565 533.236328,304.291046 532.169189,296.029907 
	C530.952454,286.611420 531.039795,277.024475 530.532837,266.964905 
	C536.505432,266.964905 541.571960,266.964905 546.676880,266.964905 
	C546.676880,262.390564 546.676880,258.340424 546.676880,253.780731 
	C541.301697,253.780731 536.244934,253.780731 530.876099,253.780731 
	C530.876099,243.336868 530.876099,233.408554 530.876099,223.274414 
	C526.158997,223.274414 521.776428,223.274414 517.004517,223.274414 
	C517.004517,248.300201 516.663696,273.060944 517.194092,297.803040 
	C517.373474,306.171112 526.444336,318.675415 537.199707,317.955902 
	C542.763245,317.583740 548.290527,316.670959 553.834229,316.002411 
M156.865601,311.619385 
	C169.852219,304.004883 177.133469,293.083893 175.959045,277.621887 
	C174.699707,261.042053 161.711060,247.506714 144.719467,246.014359 
	C127.365685,244.490189 110.596352,256.621674 107.655571,274.379883 
	C105.040871,290.169037 112.598007,303.868927 124.976547,310.895691 
	C134.979828,316.574127 145.607468,316.169128 156.865601,311.619385 
M316.808746,245.001083 
	C314.885773,245.335648 312.920746,245.516373 311.046417,246.028931 
	C295.057556,250.401398 283.810913,260.008240 283.150970,278.722809 
	C282.471130,298.001892 283.000000,317.323608 283.000000,336.626648 
	C283.000000,338.369476 283.000000,340.112305 283.000000,341.735809 
	C288.057770,341.735809 292.327362,341.735809 297.262390,341.735809 
	C297.262390,331.360657 297.262390,321.231842 297.262390,310.641174 
	C314.355682,323.314240 336.532654,320.151215 348.710938,307.072723 
	C362.268005,292.513550 362.026459,270.583557 348.899963,256.532196 
	C340.584473,247.630768 329.797882,244.323563 316.808746,245.001083 
M457.000000,310.431183 
	C457.334137,299.836792 457.303925,289.213135 458.150665,278.659882 
	C458.598114,273.083618 458.164001,266.728607 464.927979,263.474365 
	C470.890411,260.605774 476.906952,260.346100 483.123444,261.650696 
	C488.237061,262.723785 491.832245,265.515350 492.079010,271.207733 
	C492.436584,279.455780 492.800720,287.705902 492.969116,295.959076 
	C493.117157,303.216797 493.000000,310.479919 493.000000,317.614441 
	C498.395996,317.614441 503.120483,317.614441 506.992798,317.614441 
	C506.992798,301.476135 507.460510,285.706299 506.782623,269.985870 
	C506.473755,262.822968 503.295959,256.309753 496.694183,251.846893 
	C486.768402,245.136993 476.340240,244.983643 465.280945,247.862991 
	C455.023468,250.533600 446.620575,256.251129 445.284698,266.811432 
	C443.162231,283.589996 443.056549,300.623657 442.090973,317.669739 
	C447.947113,317.669739 452.333405,317.669739 457.000000,317.669739 
	C457.000000,315.364655 457.000000,313.387634 457.000000,310.431183 
M381.402679,252.919556 
	C373.119080,259.267334 368.812317,267.999664 368.155212,278.075012 
	C367.462738,288.691956 368.000000,299.389069 368.000000,310.051178 
	C368.000000,312.640137 368.000000,315.229095 368.000000,317.755554 
	C373.010193,317.755554 377.282318,317.755554 382.000000,317.755554 
	C382.000000,308.564087 381.589569,299.587311 382.120483,290.666565 
	C382.609131,282.455170 382.457855,273.982574 387.967773,266.804108 
	C392.025085,261.518158 395.082428,260.059601 401.556641,261.802216 
	C404.000763,257.991699 406.468414,254.144516 408.961090,250.258301 
	C398.885925,243.637680 390.215179,245.738144 381.402679,252.919556 
M430.000000,280.500000 
	C430.000000,269.746918 430.000000,258.993835 430.000000,248.395401 
	C424.917358,248.395401 420.526611,248.395401 416.254944,248.395401 
	C416.254944,271.717529 416.254944,294.643463 416.254944,317.693604 
	C420.900513,317.693604 425.286255,317.693604 430.000000,317.693604 
	C430.000000,305.426788 430.000000,293.463409 430.000000,280.500000 
M429.946625,223.478973 
	C428.434113,222.912277 426.921326,222.346283 425.409149,221.778778 
	C421.168854,220.187454 417.620789,221.759247 415.115906,224.936371 
	C412.119110,228.737411 412.186493,233.175278 414.845764,237.233047 
	C416.869965,240.321838 422.836487,241.686111 426.325562,240.219650 
	C433.739105,237.103760 435.104523,231.820404 429.946625,223.478973 
z"/>
<path fill="#000000" opacity="1.000000" stroke="none" 
	d="
M64.707870,271.307800 
	C62.588348,263.833466 60.848240,256.660614 58.818394,249.570724 
	C56.181175,240.359375 46.933411,239.047409 41.196747,243.262695 
	C40.328152,243.900925 39.230999,244.228104 38.073341,244.778137 
	C38.073341,235.210556 38.073341,225.928696 38.073341,216.323425 
	C67.604286,216.323425 97.064278,216.323425 126.524261,216.323425 
	C126.616791,216.548615 126.709328,216.773819 126.801857,216.999008 
	C123.028671,218.389221 119.155045,219.556824 115.498856,221.206360 
	C94.400818,230.725128 82.860390,247.662003 77.973343,269.771332 
	C76.449921,276.663422 74.626396,283.490387 72.845459,290.322449 
	C72.668472,291.001404 71.827927,291.507324 70.620842,292.836060 
	C68.610664,285.313538 66.784554,278.479828 64.707870,271.307800 
z"/>
<path fill="#78E602" opacity="1.000000" stroke="none" 
	d="
M125.460411,374.905762 
	C122.503540,373.898315 120.081169,372.504456 117.503868,372.101501 
	C101.967789,369.672394 87.131386,364.864716 72.697067,358.852966 
	C64.628952,355.492615 56.898682,351.321045 49.242203,346.708374 
	C117.902405,367.999176 185.898056,369.726837 253.254288,341.994904 
	C253.449768,342.359894 253.645248,342.724884 253.840729,343.089844 
	C248.695129,346.359009 243.680023,349.859070 238.379807,352.854675 
	C221.539902,362.372314 203.609268,369.032349 184.599136,372.716888 
	C181.881210,373.243683 179.149628,373.700073 176.214325,374.511963 
	C159.310608,374.882355 142.616959,374.929810 125.460411,374.905762 
z"/>
<path fill="#78E602" opacity="1.000000" stroke="none" 
	d="
M553.905457,315.569092 
	C548.290527,316.670959 542.763245,317.583740 537.199707,317.955902 
	C526.444336,318.675415 517.373474,306.171112 517.194092,297.803040 
	C516.663696,273.060944 517.004517,248.300201 517.004517,223.274414 
	C521.776428,223.274414 526.158997,223.274414 530.876099,223.274414 
	C530.876099,233.408554 530.876099,243.336868 530.876099,253.780731 
	C536.244934,253.780731 541.301697,253.780731 546.676880,253.780731 
	C546.676880,258.340424 546.676880,262.390564 546.676880,266.964905 
	C541.571960,266.964905 536.505432,266.964905 530.532837,266.964905 
	C531.039795,277.024475 530.952454,286.611420 532.169189,296.029907 
	C533.236328,304.291046 538.829834,306.929565 546.503113,303.726013 
	C549.194641,302.602356 550.461548,302.918488 551.104126,305.871826 
	C551.348328,306.994324 552.411743,307.938538 553.468018,308.980743 
	C553.881775,311.043579 553.929199,313.089661 553.905457,315.569092 
z"/>
<path fill="#78E602" opacity="1.000000" stroke="none" 
	d="
M156.511505,311.780762 
	C145.607468,316.169128 134.979828,316.574127 124.976547,310.895691 
	C112.598007,303.868927 105.040871,290.169037 107.655571,274.379883 
	C110.596352,256.621674 127.365685,244.490189 144.719467,246.014359 
	C161.711060,247.506714 174.699707,261.042053 175.959045,277.621887 
	C177.133469,293.083893 169.852219,304.004883 156.511505,311.780762 
z"/>
<path fill="#78E602" opacity="1.000000" stroke="none" 
	d="
M317.271729,245.000595 
	C329.797882,244.323563 340.584473,247.630768 348.899963,256.532196 
	C362.026459,270.583557 362.268005,292.513550 348.710938,307.072723 
	C336.532654,320.151215 314.355682,323.314240 297.262390,310.641174 
	C297.262390,321.231842 297.262390,331.360657 297.262390,341.735809 
	C292.327362,341.735809 288.057770,341.735809 283.000000,341.735809 
	C283.000000,340.112305 283.000000,338.369476 283.000000,336.626648 
	C283.000000,317.323608 282.471130,298.001892 283.150970,278.722809 
	C283.810913,260.008240 295.057556,250.401398 311.046417,246.028931 
	C312.920746,245.516373 314.885773,245.335648 317.271729,245.000595 
M336.467621,264.976562 
	C328.439636,258.229523 319.284851,256.613983 310.027100,261.167328 
	C301.415894,265.402679 296.966919,272.526337 296.777924,282.936920 
	C296.502411,298.112518 312.115326,308.473022 327.201752,304.277344 
	C343.195282,299.829437 350.751831,278.690735 336.467621,264.976562 
z"/>
<path fill="#78E602" opacity="1.000000" stroke="none" 
	d="
M457.000000,310.920898 
	C457.000000,313.387634 457.000000,315.364655 457.000000,317.669739 
	C452.333405,317.669739 447.947113,317.669739 442.090973,317.669739 
	C443.056549,300.623657 443.162231,283.589996 445.284698,266.811432 
	C446.620575,256.251129 455.023468,250.533600 465.280945,247.862991 
	C476.340240,244.983643 486.768402,245.136993 496.694183,251.846893 
	C503.295959,256.309753 506.473755,262.822968 506.782623,269.985870 
	C507.460510,285.706299 506.992798,301.476135 506.992798,317.614441 
	C503.120483,317.614441 498.395996,317.614441 493.000000,317.614441 
	C493.000000,310.479919 493.117157,303.216797 492.969116,295.959076 
	C492.800720,287.705902 492.436584,279.455780 492.079010,271.207733 
	C491.832245,265.515350 488.237061,262.723785 483.123444,261.650696 
	C476.906952,260.346100 470.890411,260.605774 464.927979,263.474365 
	C458.164001,266.728607 458.598114,273.083618 458.150665,278.659882 
	C457.303925,289.213135 457.334137,299.836792 457.000000,310.920898 
z"/>
<path fill="#78E602" opacity="1.000000" stroke="none" 
	d="
M381.696594,252.701477 
	C390.215179,245.738144 398.885925,243.637680 408.961090,250.258301 
	C406.468414,254.144516 404.000763,257.991699 401.556641,261.802216 
	C395.082428,260.059601 392.025085,261.518158 387.967773,266.804108 
	C382.457855,273.982574 382.609131,282.455170 382.120483,290.666565 
	C381.589569,299.587311 382.000000,308.564087 382.000000,317.755554 
	C377.282318,317.755554 373.010193,317.755554 368.000000,317.755554 
	C368.000000,315.229095 368.000000,312.640137 368.000000,310.051178 
	C368.000000,299.389069 367.462738,288.691956 368.155212,278.075012 
	C368.812317,267.999664 373.119080,259.267334 381.696594,252.701477 
z"/>
<path fill="#78E602" opacity="1.000000" stroke="none" 
	d="
M430.000000,281.000000 
	C430.000000,293.463409 430.000000,305.426788 430.000000,317.693604 
	C425.286255,317.693604 420.900513,317.693604 416.254944,317.693604 
	C416.254944,294.643463 416.254944,271.717529 416.254944,248.395401 
	C420.526611,248.395401 424.917358,248.395401 430.000000,248.395401 
	C430.000000,258.993835 430.000000,269.746918 430.000000,281.000000 
z"/>
<path fill="#78E602" opacity="1.000000" stroke="none" 
	d="
M430.226318,223.761368 
	C435.104523,231.820404 433.739105,237.103760 426.325562,240.219650 
	C422.836487,241.686111 416.869965,240.321838 414.845764,237.233047 
	C412.186493,233.175278 412.119110,228.737411 415.115906,224.936371 
	C417.620789,221.759247 421.168854,220.187454 425.409149,221.778778 
	C426.921326,222.346283 428.434113,222.912277 430.226318,223.761368 
z"/>
<path fill="#000000" opacity="1.000000" stroke="none" 
	d="
M336.728760,265.231628 
	C350.751831,278.690735 343.195282,299.829437 327.201752,304.277344 
	C312.115326,308.473022 296.502411,298.112518 296.777924,282.936920 
	C296.966919,272.526337 301.415894,265.402679 310.027100,261.167328 
	C319.284851,256.613983 328.439636,258.229523 336.728760,265.231628 
z"/>
</svg>